<?xml version="1.0" encoding="UTF-8"?>
<svg id="Layer_2" data-name="Layer 2" xmlns="http://www.w3.org/2000/svg" viewBox="0 0 1231.59 986.07">
  <defs>
    <style>
      .cls-1 {
        fill: #fff;
      }

      .cls-2 {
        fill: #ce7b5b;
      }
    </style>
  </defs>
  <g id="Layer_1-2" data-name="Layer 1">
    <g>
      <path class="cls-1" d="M184.91,728.25c0-38.49-34.45-46.82-57.25-52.31-34.97-8.45-34.97-26.49-34.97-32.41,0-18,13.61-30.12,33.85-30.12h45.1v-20.25h-45.66c-4.64,0-20.91.71-35.51,9.94-14.23,9.02-21.74,22.97-21.74,40.42,0,35.07,28.81,46.28,56.99,52.61,35.23,7.94,35.23,26.14,35.23,32.12,0,22.42-13.29,36.9-33.85,36.9H46.49c-13.9,0-22.52-4.38-22.52-26.16v-57.46H0v57.46c0,10.9,3.35,46.42,46.49,46.42h80.07c33.28,0,58.36-24.56,58.36-57.16"/>
      <rect class="cls-1" x="1208.15" y="547.92" width="23.27" height="195.05"/>
      <rect class="cls-1" x="257.69" y="557.64" width="23.29" height="26.24"/>
      <rect class="cls-1" x="635.8" y="557.64" width="22.98" height="25.93"/>
      <rect class="cls-1" x="839.73" y="557.1" width="23.29" height="26.26"/>
      <rect class="cls-1" x="977.3" y="557.64" width="23.27" height="26.24"/>
      <rect class="cls-1" x="1016.51" y="557.64" width="23.29" height="26.24"/>
      <rect class="cls-1" x="413.33" y="762.82" width="23.27" height="26.26"/>
      <rect class="cls-1" x="452.56" y="762.83" width="23.27" height="26.26"/>
      <rect class="cls-1" x="61.22" y="798.48" width="23.27" height="26.24"/>
      <rect class="cls-1" x="100.44" y="798.46" width="23.27" height="26.24"/>
      <path class="cls-1" d="M1153.95,682.87c0,22.3-11.23,35.02-32.43,36.81h-68.77c-20.09,0-32.57-11.31-32.57-29.54v-64.77h-23.27v63.87c0,19-11.92,30.81-31.13,30.83l-67.81-.54c-21.9-.09-34.97-11.26-34.97-29.93v-64.79h-23.29v63.89c0,19.34-11.87,31.35-30.99,31.35h-134.05l1.88-1.98c12.17-12.79,32.03-38.23,28.45-64.75-4.48-30.8-26.31-49.93-56.99-49.93s-52.71,18.68-57.26,49.96c-3.3,26.71,16.42,52.02,28.48,64.74l1.86,1.96h-129.72c-22.02,0-35.18-11.17-35.18-29.91v-64.77h-23.27v63.87c0,19.01-11.99,30.81-31.32,30.81h-100.76l-2.1-2.17v-43.66c0-16.28-.54-21.41-4.61-29.16-7.28-14.27-21.13-22.45-38.03-22.45-3.27,0-8.58.57-8.81.59l-4.66.49v20.32l8.9.02c20.59,0,24.21,14.15,24.21,43.85v30.01l-2.14,2.17h-60.65v22.92h184.46l8.62-.21c16.46-.9,29.18-6.74,37.73-17.33l.35-.42h3.22l.33.4c8.72,10.22,22.4,16.2,39.55,17.31l8.6.24h118.42c10.74,0,22.09-1.91,32.85-5.51l.38-.07,1.46.09c10.48,3.58,21.74,5.49,32.55,5.49h123.03l8.24-.75c16.55-.89,29.25-6.73,37.82-17.31l.33-.43h3.22l.33.42c8.97,10.5,23.13,16.53,40.96,17.38l61.92.69,12.69-.21c16.46-.9,29.16-6.74,37.73-17.33l.33-.42h3.22l.35.4c8.71,10.22,22.38,16.2,39.57,17.31l8.55.23,49.81.02,5.61-.02,8.88-.28c32.76-2.69,53.14-25.15,53.14-58.58v-136.16h-23.27v134.95ZM649.44,710.9l-.26.16-2.26.02-.28-.16c-23.38-14.01-35.44-35.77-32.27-58.2,2.78-17.64,16.3-29.47,33.66-29.47s30.66,12.11,33.39,29.46c3.15,22.37-8.79,44.11-31.98,58.2"/>
      <path class="cls-1" d="M49.61,861.9L.41,986.07h22.16l12.67-35.33h35.16l.28.78,11.85,34.55h27.06l-45.27-124.17h-14.7ZM53.17,901.02l11.24,32.64h-23.01l11.77-32.64Z"/>
      <path class="cls-1" d="M173.63,967.68h-4.21v-105.79h-24.85v124.17h68.77v-20.32l-5.61.47c-11.05.94-23.48,1.46-34.1,1.46"/>
      <path class="cls-1" d="M228.38,881.74l5.68-.54c11.42-1.11,15.47-1.29,24.45-1.29h5.65v106.15h24.83v-106.15h5.13c9.26,0,13.4.17,24.82,1.29l5.67.54v-19.83h-96.23v19.83Z"/>
      <path class="cls-1" d="M382.85,861.9l-49.22,124.17h22.19l12.63-35.33h35.18l.28.78,11.84,34.55h27.06l-45.26-124.17h-14.7ZM386.41,901.02l11.23,32.64h-22.99l11.77-32.64Z"/>
      <polygon class="cls-1" points="553.41 861.9 553.41 942.42 551.39 939.9 488.91 861.9 473.5 861.9 473.5 986.06 492.02 986.06 492.02 905.51 556.69 986.06 571.92 986.06 571.92 861.9 553.41 861.9"/>
      <path class="cls-1" d="M620.23,986.06h24.83v-53.44h2.96c10.5,0,20.42,0,30.92.73l5.53.38v-19.86l-5.53.38c-10.5.73-20.42.73-30.92.73h-2.96v-35.26h10.36c13.09,0,21.71.23,32.52,1.46l5.75.64v-19.92h-73.46v124.16Z"/>
      <path class="cls-1" d="M876.04,968.23h-12.7v-36.18h2.95c12.3,0,22.66.31,31.63.92l5.54.4v-19.78l-5.46.3c-9.49.47-19.86.71-31.72.71h-2.95v-34.88h10.9c12.53,0,21.67.4,32.59,1.46l5.68.56v-19.83h-73.64v124.16h74.54v-19.59l-5.61.49c-10.03.87-19.81,1.27-31.75,1.27"/>
      <path class="cls-1" d="M944.47,881.74l5.68-.54c11.42-1.11,15.48-1.29,24.45-1.29h5.67v106.15h24.83v-106.15h5.11c9.28,0,13.4.17,24.82,1.29l5.68.54v-19.83h-96.24v19.83Z"/>
      <polygon class="cls-1" points="1148.11 861.9 1148.11 912.95 1095.75 912.95 1095.75 861.9 1070.91 861.9 1070.91 986.06 1095.75 986.06 1095.75 930.59 1148.11 930.59 1148.11 986.06 1172.94 986.06 1172.94 861.9 1148.11 861.9"/>
      <rect class="cls-1" x="1208.15" y="861.91" width="23.44" height="124.16"/>
      <path class="cls-1" d="M767.68,968.24h-12.7v-36.18h2.95c12.3,0,22.66.31,31.63.92l5.54.4v-19.79l-5.46.3c-9.47.49-19.86.73-31.72.73h-2.95v-34.88h10.9c12.53,0,21.65.4,32.59,1.46l5.68.56v-19.83h-73.65v124.16h74.56v-19.59l-5.63.49c-10.01.87-19.8,1.27-31.73,1.27"/>
    </g>
    <path class="cls-2" d="M795.98,0c-67.5,0-131.3,26.23-180.19,73.97C566.92,26.23,503.12,0,435.62,0h-108.98v40.98h108.98c57.63,0,111.96,22.51,153.42,63.43-19.9,26.4-34.57,55.73-43.66,87.33-30.9-45.66-82.46-73.64-136.9-73.64h-81.86v40.98h81.86c69.62,0,126.26,57.94,126.26,129.16v150.61h40.06v-171.6c0-47.43,14.15-92.61,40.98-131.06,26.85,38.44,41.01,83.63,41.01,131.06v171.6h40.06v-150.61c0-71.22,56.62-129.16,126.24-129.16h81.86v-40.98h-81.86c-54.43,0-105.98,27.98-136.88,73.64-9.11-31.61-23.78-60.93-43.67-87.33,41.48-40.93,95.81-63.43,153.42-63.43h108.98V0h-108.98Z"/>
  </g>
</svg>